<?xml version="1.0" encoding="utf-8"?>
<!-- Generator: Adobe Illustrator 25.2.3, SVG Export Plug-In . SVG Version: 6.00 Build 0)  -->
<svg version="1.1" id="Layer_1" xmlns="http://www.w3.org/2000/svg" xmlns:xlink="http://www.w3.org/1999/xlink" x="0px" y="0px"
	 viewBox="0 0 1980 1080" style="enable-background:new 0 0 1980 1080;" xml:space="preserve">
<image style="overflow:visible;enable-background:new    ;" width="390" height="512" xlink:href="../Components/male-body-back.png"  transform="matrix(1 0 0 1 600 310)">
</image>
<image style="overflow:visible;enable-background:new    ;" width="512" height="512" xlink:href="../Components/6126978.png"  transform="matrix(0.1445 0 0 0.1406 758 590)">
</image>
<image style="overflow:visible;enable-background:new    ;" width="512" height="512" xlink:href="../Components/6126978.png"  transform="matrix(0.1445 0 0 0.1406 758 521.5)">
</image>
<image style="overflow:visible;enable-background:new    ;" width="512" height="512" xlink:href="../Components/6126978.png"  transform="matrix(0.1445 0 0 0.1406 758 454)">
</image>
<image style="overflow:visible;enable-background:new    ;" width="512" height="512" xlink:href="../Components/6126978.png"  transform="matrix(0.1445 0 0 0.1406 758 389)">
</image>
<image style="overflow:visible;enable-background:new    ;" width="512" height="454" xlink:href="../Components/glow (1).png"  transform="matrix(0.125 0 0 0.1256 832 397)">
</image>
<image style="overflow:visible;enable-background:new    ;" width="512" height="454" xlink:href="../Components/glow (1).png"  transform="matrix(0.1162 0 0 0.1233 705.5 498)">
</image>
<image style="overflow:visible;enable-background:new    ;" width="512" height="454" xlink:href="../Components/glow (1).png"  transform="matrix(0.1123 0 0 0.1178 826.5 590)">
</image>
</svg>
